<svg width="26" height="15" viewBox="0 0 26 15" fill="none" xmlns="http://www.w3.org/2000/svg">
<path d="M1.00002 11.5L25 11.5" stroke="#8BE8FC" stroke-width="2" stroke-linecap="round"/>
<path d="M3.50001 1.99997L3.50001 14" stroke="#8BE8FC" stroke-width="2" stroke-linecap="round"/>
<path d="M22.5 1.99997V14" stroke="#8BE8FC" stroke-width="2" stroke-linecap="round"/>
<path d="M16.1161 4.77864L15.466 4.40479L14.7137 5.7025L15.3639 6.07635L16.1161 4.77864ZM20.3639 8.95135C20.7229 9.15783 21.1824 9.0347 21.3902 8.67635C21.5979 8.318 21.4752 7.86012 21.1161 7.65364L20.3639 8.95135ZM15.3639 6.07635L20.3639 8.95135L21.1161 7.65364L16.1161 4.77864L15.3639 6.07635Z" fill="#FD8BA8"/>
<path d="M18.24 9.74L18.24 3.99" stroke="#FD8BA8" stroke-width="1.5" stroke-linecap="round"/>
<path d="M15.74 8.3025L20.74 5.4275" stroke="#FD8BA8" stroke-width="1.5" stroke-linecap="round"/>
<path d="M5.26 5.4275L10.26 8.3025" stroke="#FD8BA8" stroke-width="1.5" stroke-linecap="round"/>
<path d="M7.76001 9.74L7.76001 3.99" stroke="#FD8BA8" stroke-width="1.5" stroke-linecap="round"/>
<path d="M4.88385 7.65365C4.52477 7.86012 4.40208 8.31801 4.60982 8.67636C4.81756 9.03471 5.27706 9.15783 5.63615 8.95136L4.88385 7.65365ZM10.6361 6.07636L11.2863 5.70251L10.534 4.4048L9.88385 4.77865L10.6361 6.07636ZM5.63615 8.95136L10.6361 6.07636L9.88385 4.77865L4.88385 7.65365L5.63615 8.95136Z" fill="#FD8BA8"/>
<path d="M10.8761 1.7687C10.5171 1.56222 10.0576 1.68533 9.84985 2.04369C9.64212 2.40205 9.76482 2.85995 10.1239 3.06644L10.8761 1.7687ZM15.1239 5.94169L15.7741 6.31557L16.5263 5.01783L15.8761 4.64395L15.1239 5.94169ZM10.1239 3.06644L15.1239 5.94169L15.8761 4.64395L10.8761 1.7687L10.1239 3.06644Z" fill="#FD8BA8"/>
<path d="M13 6.73045L13 0.979953" stroke="#FD8BA8" stroke-width="1.5" stroke-linecap="round"/>
<path d="M10.1239 4.64395L9.47373 5.01783L10.226 6.31557L10.8761 5.94169L10.1239 4.64395ZM15.8761 3.06644C16.2352 2.85996 16.3579 2.40206 16.1502 2.0437C15.9425 1.68533 15.483 1.56222 15.1239 1.7687L15.8761 3.06644ZM10.8761 5.94169L15.8761 3.06644L15.1239 1.7687L10.1239 4.64395L10.8761 5.94169Z" fill="#FD8BA8"/>
</svg>
