<svg width="2048" height="2048" viewBox="0 0 2048 2048" fill="none" xmlns="http://www.w3.org/2000/svg">
<path d="M6.854 19.8C6.854 19.24 6.806 18.784 6.71 18.432C6.618 18.08 6.488 17.808 6.32 17.616C6.156 17.424 5.962 17.292 5.738 17.22C5.514 17.148 5.272 17.112 5.012 17.112H4.592V22.578H5.012C5.284 22.578 5.532 22.536 5.756 22.452C5.984 22.364 6.18 22.218 6.344 22.014C6.508 21.806 6.634 21.522 6.722 21.162C6.81 20.802 6.854 20.348 6.854 19.8ZM8.894 19.8C8.894 20.476 8.822 21.056 8.678 21.54C8.534 22.02 8.332 22.42 8.072 22.74C7.816 23.06 7.518 23.312 7.178 23.496C6.838 23.68 6.472 23.81 6.08 23.886C5.688 23.962 5.284 24 4.868 24H2.624V15.684H4.724C5.256 15.684 5.77 15.74 6.266 15.852C6.766 15.96 7.212 16.162 7.604 16.458C8 16.75 8.314 17.166 8.546 17.706C8.778 18.242 8.894 18.94 8.894 19.8ZM13.1013 24.204C12.3133 24.204 11.6493 24.038 11.1093 23.706C10.5693 23.37 10.1593 22.878 9.87931 22.23C9.60331 21.578 9.46531 20.776 9.46531 19.824C9.46531 19.116 9.56331 18.492 9.75931 17.952C9.95931 17.408 10.2353 16.954 10.5873 16.59C10.9393 16.222 11.3493 15.944 11.8173 15.756C12.2853 15.568 12.7893 15.474 13.3293 15.474C13.9373 15.474 14.4493 15.568 14.8653 15.756C15.2813 15.944 15.6513 16.192 15.9753 16.5L14.9433 17.568C14.6913 17.344 14.4493 17.178 14.2173 17.07C13.9853 16.962 13.7213 16.908 13.4253 16.908C13.1453 16.908 12.8873 16.964 12.6513 17.076C12.4193 17.184 12.2153 17.356 12.0393 17.592C11.8673 17.824 11.7333 18.126 11.6373 18.498C11.5413 18.866 11.4933 19.312 11.4933 19.836C11.4933 20.56 11.5513 21.136 11.6673 21.564C11.7873 21.992 11.9673 22.3 12.2073 22.488C12.4473 22.672 12.7513 22.764 13.1193 22.764C13.3153 22.764 13.4993 22.742 13.6713 22.698C13.8433 22.65 14.0033 22.588 14.1513 22.512V20.61H13.1073L12.9153 19.23H16.0113V23.364C15.5953 23.62 15.1473 23.824 14.6673 23.976C14.1913 24.128 13.6693 24.204 13.1013 24.204ZM19.4746 17.088V19.086H22.3546V20.466H19.4746V22.59H22.9486V24H17.5066V15.684H22.9426L22.7446 17.088H19.4746Z" fill="#8BE8FC"/>
<path d="M12.4315 10.486C12.4315 10.194 12.3735 9.964 12.2575 9.796C12.1455 9.624 11.9855 9.502 11.7775 9.43C11.5735 9.358 11.3335 9.322 11.0575 9.322H10.2475V11.566H10.9735C11.1655 11.566 11.3475 11.552 11.5195 11.524C11.6955 11.496 11.8515 11.444 11.9875 11.368C12.1275 11.292 12.2355 11.184 12.3115 11.044C12.3915 10.9 12.4315 10.714 12.4315 10.486ZM12.1195 7.006C12.1195 6.678 12.0155 6.442 11.8075 6.298C11.6035 6.15 11.2855 6.076 10.8535 6.076H10.2475V8.002H10.9135C11.3375 8.002 11.6435 7.924 11.8315 7.768C12.0235 7.612 12.1195 7.358 12.1195 7.006ZM14.4595 10.564C14.4595 11.044 14.3675 11.442 14.1835 11.758C13.9995 12.074 13.7475 12.322 13.4275 12.502C13.1075 12.682 12.7415 12.81 12.3295 12.886C11.9215 12.962 11.4915 13 11.0395 13H8.27947V4.684H10.9135C11.3415 4.684 11.7455 4.72 12.1255 4.792C12.5095 4.86 12.8495 4.976 13.1455 5.14C13.4415 5.3 13.6735 5.518 13.8415 5.794C14.0135 6.066 14.0995 6.404 14.0995 6.808C14.0995 7.14 14.0295 7.428 13.8895 7.672C13.7495 7.912 13.5635 8.11 13.3315 8.266C13.0995 8.418 12.8475 8.528 12.5755 8.596C12.8715 8.644 13.1635 8.738 13.4515 8.878C13.7435 9.014 13.9835 9.218 14.1715 9.49C14.3635 9.762 14.4595 10.12 14.4595 10.564ZM21.5408 7.21C21.5408 7.606 21.4668 7.952 21.3188 8.248C21.1708 8.544 20.9708 8.794 20.7188 8.998C20.4668 9.202 20.1848 9.366 19.8728 9.49L22.0508 13H19.8248L18.0248 9.82H17.4668V13H15.4988V4.684H18.1148C19.2468 4.684 20.1008 4.89 20.6768 5.302C21.2528 5.714 21.5408 6.35 21.5408 7.21ZM19.5128 7.21C19.5128 6.81 19.3948 6.52 19.1588 6.34C18.9268 6.156 18.5808 6.064 18.1208 6.064H17.4668V8.47H18.1988C18.6268 8.47 18.9528 8.37 19.1768 8.17C19.4008 7.97 19.5128 7.65 19.5128 7.21Z" fill="#FD8BA8"/>
<path d="M22.7265 10.9761C22.7265 10.6361 22.8485 10.3441 23.0925 10.1001C23.3405 9.85609 23.6405 9.73409 23.9925 9.73409C24.3445 9.73409 24.6405 9.85609 24.8805 10.1001C25.1245 10.3441 25.2465 10.6361 25.2465 10.9761C25.2465 11.3201 25.1245 11.6181 24.8805 11.8701C24.6405 12.1181 24.3445 12.2421 23.9925 12.2421C23.6405 12.2421 23.3405 12.1181 23.0925 11.8701C22.8485 11.6181 22.7265 11.3201 22.7265 10.9761ZM22.7265 6.83009C22.7265 6.60209 22.7825 6.39409 22.8945 6.20609C23.0105 6.01409 23.1645 5.86009 23.3565 5.74409C23.5485 5.62809 23.7605 5.57009 23.9925 5.57009C24.3445 5.57009 24.6405 5.69609 24.8805 5.94809C25.1245 6.19609 25.2465 6.49009 25.2465 6.83009C25.2465 7.17009 25.1245 7.46409 24.8805 7.71209C24.6405 7.96009 24.3445 8.08409 23.9925 8.08409C23.6405 8.08409 23.3405 7.96009 23.0925 7.71209C22.8485 7.46409 22.7265 7.17009 22.7265 6.83009Z" fill="#FD8BA8"/>
<rect x="1" y="13.5" width="25" height="1.25" fill="url(#paint0_linear_3_133)"/>
<path d="M1.52086 7.66988L6.52086 10.5566" stroke="#FD8BA8" stroke-width="1.5" stroke-linecap="round"/>
<path d="M4.02087 12L4.02087 6.2265" stroke="#FD8BA8" stroke-width="1.5" stroke-linecap="round"/>
<path d="M1.52086 10.5566L6.52086 7.66987" stroke="#FD8BA8" stroke-width="1.5" stroke-linecap="round"/>
<defs>
<linearGradient id="paint0_linear_3_133" x1="13.5" y1="13.5" x2="13.5" y2="14.75" gradientUnits="userSpaceOnUse">
<stop offset="0.4999" stop-color="#FD8BA8"/>
<stop offset="0.5" stop-color="white"/>
<stop offset="0.5001" stop-color="#8BE8FC"/>
</linearGradient>
</defs>
</svg>
